<!DOCTYPE svg PUBLIC "-//W3C//DTD SVG 20010904//EN" "http://www.w3.org/TR/2001/REC-SVG-20010904/DTD/svg10.dtd">
<svg version="1.0" xmlns="http://www.w3.org/2000/svg" width="377px" height="377px" viewBox="0 0 3770 3770" preserveAspectRatio="xMidYMid meet">
<g id="layer101" fill="#1c73bf" stroke="none">
 <path d="M348 3751 c-158 -51 -280 -173 -328 -329 -20 -63 -20 -96 -20 -1537 0 -1436 0 -1474 20 -1536 48 -157 172 -281 328 -329 63 -20 96 -20 1537 -20 1441 0 1474 0 1537 20 156 48 280 172 328 329 20 62 20 100 20 1536 0 1436 0 1474 -20 1536 -48 157 -172 281 -328 329 -63 20 -95 20 -1541 19 -1400 0 -1479 -1 -1533 -18z"/>
 </g>
<g id="layer102" fill="#277bcb" stroke="none">
 <path d="M348 3751 c-158 -51 -280 -173 -328 -329 -20 -63 -20 -96 -20 -1537 0 -1436 0 -1474 20 -1536 48 -157 172 -281 328 -329 63 -20 96 -20 1537 -20 1441 0 1474 0 1537 20 156 48 280 172 328 329 20 62 20 100 20 1536 0 1436 0 1474 -20 1536 -48 157 -172 281 -328 329 -63 20 -95 20 -1541 19 -1400 0 -1479 -1 -1533 -18z m1002 -685 c0 -3 -5 -8 -12 -12 -7 -4 -8 -3 -4 4 7 12 16 16 16 8z m957 -273 c-4 -3 -7 0 -7 7 0 7 3 10 7 7 3 -4 3 -10 0 -14z m930 -70 c-4 -3 -7 0 -7 7 0 7 3 10 7 7 3 -4 3 -10 0 -14z m3 -177 c0 -3 -5 -8 -12 -12 -7 -4 -8 -3 -4 4 7 12 16 16 16 8z m-1803 -363 c-4 -3 -10 -3 -14 0 -3 4 0 7 7 7 7 0 10 -3 7 -7z m1808 -53 c3 -5 4 -10 1 -10 -3 0 -8 5 -11 10 -3 6 -4 10 -1 10 3 0 8 -4 11 -10z m65 -454 c0 -3 -5 -8 -12 -12 -7 -4 -8 -3 -4 4 7 12 16 16 16 8z m-2683 -1043 c-4 -3 -10 -3 -14 0 -3 4 0 7 7 7 7 0 10 -3 7 -7z"/>
 </g>
<g id="layer103" fill="#1680dc" stroke="none">
 <path d="M348 3751 c-158 -51 -280 -173 -328 -329 -20 -63 -20 -96 -20 -1537 0 -1436 0 -1474 20 -1536 48 -157 172 -281 328 -329 63 -20 96 -20 1537 -20 1441 0 1474 0 1537 20 156 48 280 172 328 329 20 62 20 100 20 1536 0 1436 0 1474 -20 1536 -48 157 -172 281 -328 329 -63 20 -95 20 -1541 19 -1400 0 -1479 -1 -1533 -18z m1259 -617 c-3 -3 -12 -4 -19 -1 -8 3 -5 6 6 6 11 1 17 -2 13 -5z m1489 -12 c-10 -2 -22 0 -28 6 -6 6 0 7 19 4 21 -5 23 -7 9 -10z m-1607 4 c-2 -2 -20 -6 -39 -10 -25 -4 -31 -3 -20 4 14 9 69 15 59 6z m1681 -16 c13 -9 13 -10 0 -10 -8 0 -22 5 -30 10 -13 9 -13 10 0 10 8 0 22 -5 30 -10z m-1760 -4 c0 -2 -7 -7 -16 -10 -8 -3 -12 -2 -9 4 6 10 25 14 25 6z m-71 -53 c-18 -21 -37 -42 -41 -47 -5 -6 -8 -6 -8 1 0 12 65 83 77 83 4 0 -9 -17 -28 -37z m1905 8 c-2 -3 -12 3 -22 13 -16 17 -16 18 5 5 12 -7 20 -15 17 -18z m87 -93 c26 -51 24 -61 -4 -16 -12 20 -33 52 -46 70 l-25 33 28 -25 c15 -14 37 -42 47 -62z m-254 35 c-4 -3 -10 -3 -14 0 -3 4 0 7 7 7 7 0 10 -3 7 -7z m-787 -33 c6 -11 8 -20 6 -20 -3 0 -10 9 -16 20 -6 11 -8 20 -6 20 3 0 10 -9 16 -20z m900 -21 c22 -23 40 -46 40 -53 0 -6 -10 3 -22 20 -12 17 -35 40 -52 52 -17 12 -25 22 -18 22 6 0 30 -19 52 -41z m-1919 8 c-10 -9 -11 -8 -5 6 3 10 9 15 12 12 3 -3 0 -11 -7 -18z m-14 -109 c-2 -13 -4 -3 -4 22 0 25 2 35 4 23 2 -13 2 -33 0 -45z m1043 -189 c-6 -23 -14 -39 -17 -36 -3 4 0 20 6 38 6 18 12 82 13 143 l2 111 3 -108 c2 -59 -1 -126 -7 -148z m1067 179 c-3 -7 -5 -2 -5 12 0 14 2 19 5 13 2 -7 2 -19 0 -25z m-120 -75 c-4 -3 -7 0 -7 7 0 7 3 10 7 7 3 -4 3 -10 0 -14z m-1990 -40 c-3 -10 -5 -2 -5 17 0 19 2 27 5 18 2 -10 2 -26 0 -35z m2103 -13 l-11 -25 6 25 c2 14 5 34 6 45 2 19 2 19 6 0 2 -12 -1 -32 -7 -45z m-123 13 c-4 -3 -7 0 -7 7 0 7 3 10 7 7 3 -4 3 -10 0 -14z m-17 -37 c0 -2 -7 -9 -15 -16 -13 -11 -14 -10 -9 4 5 14 24 23 24 12z m-1941 -48 c10 -30 9 -31 -4 -14 -8 11 -15 26 -15 33 0 22 8 14 19 -19z m1818 -35 c-4 -3 -10 -3 -14 0 -3 4 0 7 7 7 7 0 10 -3 7 -7z m213 3 c0 -2 -8 -10 -17 -17 -16 -13 -17 -12 -4 4 13 16 21 21 21 13z m-2005 -16 c3 -5 4 -10 1 -10 -3 0 -8 5 -11 10 -3 6 -4 10 -1 10 3 0 8 -4 11 -10z m1052 4 c-3 -3 -12 -4 -19 -1 -8 3 -5 6 6 6 11 1 17 -2 13 -5z m40 -1 c-4 -3 -10 -3 -14 0 -3 4 0 7 7 7 7 0 10 -3 7 -7z m838 -57 c-16 -13 -32 -22 -34 -20 -5 5 42 43 54 44 6 0 -3 -11 -20 -24z m-1860 -16 c3 -5 4 -10 1 -10 -3 0 -8 5 -11 10 -3 6 -4 10 -1 10 3 0 8 -4 11 -10z m1815 -14 c0 -2 -13 -9 -30 -15 -35 -12 -41 -5 -7 9 25 10 37 12 37 6z m-1763 -13 c-4 -3 -10 -3 -14 0 -3 4 0 7 7 7 7 0 10 -3 7 -7z m520 -20 c-81 -2 -213 -2 -295 0 -81 1 -14 3 148 3 162 0 229 -2 147 -3z m1160 -280 c-4 -3 -10 -3 -14 0 -3 4 0 7 7 7 7 0 10 -3 7 -7z m-1670 -10 c-4 -3 -10 -3 -14 0 -3 4 0 7 7 7 7 0 10 -3 7 -7z m1733 -3 c18 -12 2 -12 -25 0 -13 6 -15 9 -5 9 8 0 22 -4 30 -9z m-1783 -17 c-4 -3 -10 -3 -14 0 -3 4 0 7 7 7 7 0 10 -3 7 -7z m1828 -11 c-3 -3 -11 0 -18 7 -9 10 -8 11 6 5 10 -3 15 -9 12 -12z m30 -22 c3 -5 4 -10 1 -10 -3 0 -8 5 -11 10 -3 6 -4 10 -1 10 3 0 8 -4 11 -10z m-1921 -25 c-9 -14 -20 -25 -26 -25 -11 0 23 49 35 50 4 0 0 -11 -9 -25z m1971 -15 c3 -5 1 -10 -4 -10 -6 0 -11 5 -11 10 0 6 2 10 4 10 3 0 8 -4 11 -10z m-208 -16 c-3 -3 -12 -4 -19 -1 -8 3 -5 6 6 6 11 1 17 -2 13 -5z m30 -11 c-4 -3 -10 -3 -14 0 -3 4 0 7 7 7 7 0 10 -3 7 -7z m-1846 -40 c-12 -20 -14 -14 -5 12 4 9 9 14 11 11 3 -2 0 -13 -6 -23z m1029 -8 c0 -5 -5 -3 -10 5 -5 8 -10 20 -10 25 0 6 5 3 10 -5 5 -8 10 -19 10 -25z m865 25 c3 -6 -1 -7 -9 -4 -18 7 -21 14 -7 14 6 0 13 -4 16 -10z m170 -10 c3 -5 4 -10 1 -10 -3 0 -8 5 -11 10 -3 6 -4 10 -1 10 3 0 8 -4 11 -10z m-111 -52 c23 -45 20 -48 -9 -6 -14 20 -25 40 -25 43 0 14 20 -7 34 -37z m130 16 c3 -8 2 -12 -4 -9 -6 3 -10 10 -10 16 0 14 7 11 14 -7z m-2097 -66 c-2 -13 -4 -5 -4 17 -1 22 1 32 4 23 2 -10 2 -28 0 -40z m1050 30 c-3 -8 -6 -5 -6 6 -1 11 2 17 5 13 3 -3 4 -12 1 -19z m1060 -40 c-3 -8 -6 -5 -6 6 -1 11 2 17 5 13 3 -3 4 -12 1 -19z m-1060 -110 c-2 -24 -4 -7 -4 37 0 44 2 63 4 43 2 -21 2 -57 0 -80z m940 95 c-4 -3 -7 0 -7 7 0 7 3 10 7 7 3 -4 3 -10 0 -14z m-1989 -70 l-1 -68 -6 55 c-6 52 -4 80 5 80 2 0 3 -30 2 -67z m2109 -15 c-3 -7 -5 -2 -5 12 0 14 2 19 5 13 2 -7 2 -19 0 -25z m-182 -98 c-10 -11 -22 -20 -28 -20 -5 0 1 9 14 20 31 25 37 25 14 0z m-895 -20 c-6 -12 -14 -19 -17 -17 -2 3 1 15 7 27 6 12 14 19 17 17 2 -3 -1 -15 -7 -27z m-1012 -5 c-3 -3 -9 2 -12 12 -6 14 -5 15 5 6 7 -7 10 -15 7 -18z m31 -49 c-3 -3 -11 5 -18 17 -13 21 -12 21 5 5 10 -10 16 -20 13 -22z m1987 13 c-8 -11 -25 -28 -38 -36 -15 -11 -11 -4 11 20 39 41 49 47 27 16z m-963 4 c-7 -2 -21 -2 -30 0 -10 3 -4 5 12 5 17 0 24 -2 18 -5z m550 0 c-95 -2 -251 -2 -345 0 -95 1 -18 3 172 3 190 0 267 -2 173 -3z m-1508 -73 c3 -5 2 -10 -4 -10 -5 0 -13 5 -16 10 -3 6 -2 10 4 10 5 0 13 -4 16 -10z m1840 0 c-3 -5 -11 -10 -16 -10 -6 0 -7 5 -4 10 3 6 11 10 16 10 6 0 7 -4 4 -10z m-1800 -28 c-3 -3 -11 0 -18 7 -9 10 -8 11 6 5 10 -3 15 -9 12 -12z m1743 3 c-3 -3 -20 -10 -38 -15 -19 -5 -29 -6 -24 -1 12 12 74 27 62 16z m-1711 -12 c-4 -3 -10 -3 -14 0 -3 4 0 7 7 7 7 0 10 -3 7 -7z m140 -10 c-20 -2 -52 -2 -70 0 -17 2 0 4 38 4 39 0 53 -2 32 -4z m1476 0 c-7 -2 -19 -2 -25 0 -7 3 -2 5 12 5 14 0 19 -2 13 -5z m-2360 -280 c-7 -2 -21 -2 -30 0 -10 3 -4 5 12 5 17 0 24 -2 18 -5z m1650 0 c-7 -2 -21 -2 -30 0 -10 3 -4 5 12 5 17 0 24 -2 18 -5z m-1706 -9 c-3 -3 -12 -4 -19 -1 -8 3 -5 6 6 6 11 1 17 -2 13 -5z m1813 -32 c-7 -3 -19 3 -28 13 -16 15 -15 16 12 4 15 -7 23 -15 16 -17z m-1875 8 c-3 -5 -12 -10 -18 -10 -7 0 -6 4 3 10 19 12 23 12 15 0z m-57 -50 c-12 -16 -26 -30 -32 -30 -5 0 3 14 19 30 16 17 30 30 32 30 2 0 -6 -13 -19 -30z m2022 -51 c0 -6 -4 -7 -10 -4 -5 3 -10 11 -10 16 0 6 5 7 10 4 6 -3 10 -11 10 -16z m-2088 -71 c-8 -8 -9 -4 -5 13 4 13 8 18 11 10 2 -7 -1 -18 -6 -23z m2105 0 c-3 -8 -6 -5 -6 6 -1 11 2 17 5 13 3 -3 4 -12 1 -19z m-2110 -150 c-2 -24 -4 -7 -4 37 0 44 2 63 4 43 2 -21 2 -57 0 -80z m23 -128 c6 -20 6 -30 1 -24 -11 10 -27 72 -17 63 4 -4 11 -21 16 -39z m2034 -77 c-17 -20 -37 -39 -45 -41 -8 -3 4 15 26 40 48 53 61 54 19 1z m-1949 -42 c-7 -6 -54 39 -67 64 -6 11 8 2 31 -19 22 -22 38 -42 36 -45z m59 -21 c7 0 21 -7 32 -15 16 -12 12 -12 -28 1 -27 9 -48 18 -48 21 0 3 7 2 16 -1 9 -3 21 -6 28 -6z m1786 -10 c-8 -5 -22 -9 -30 -9 -10 0 -8 3 5 9 27 12 43 12 25 0z m-557 -17 c-216 -2 -570 -2 -785 0 -216 1 -40 2 392 2 432 0 608 -1 393 -2z m475 0 c-10 -2 -28 -2 -40 0 -13 2 -5 4 17 4 22 1 32 -1 23 -4z"/>
 </g>
<g id="layer104" fill="#0683f4" stroke="none">
 <path d="M348 3751 c-158 -51 -280 -173 -328 -329 -20 -63 -20 -96 -20 -1537 0 -1436 0 -1474 20 -1536 48 -157 172 -281 328 -329 63 -20 96 -20 1537 -20 1441 0 1474 0 1537 20 156 48 280 172 328 329 20 62 20 100 20 1536 0 1436 0 1474 -20 1536 -48 157 -172 281 -328 329 -63 20 -95 20 -1541 19 -1400 0 -1479 -1 -1533 -18z m1131 -632 c-26 -4 -56 -12 -69 -19 -12 -6 -24 -9 -27 -6 -13 13 112 48 132 37 6 -3 -11 -9 -36 -12z m71 17 c0 -3 -5 -8 -12 -12 -7 -4 -8 -3 -4 4 7 12 16 16 16 8z m57 -2 c-3 -3 -12 -4 -19 -1 -8 3 -5 6 6 6 11 1 17 -2 13 -5z m1495 -5 c99 -21 190 -85 229 -160 21 -42 25 -64 9 -54 -5 3 -10 15 -10 25 0 11 -28 48 -63 83 -100 100 -79 97 -677 97 -317 0 -508 4 -514 10 -15 15 957 13 1026 -1z m-1747 -68 c-11 -9 -35 -38 -54 -65 -33 -47 -35 -54 -42 -170 l-7 -121 2 120 c1 96 5 128 20 158 23 47 83 113 94 103 4 -4 -2 -15 -13 -25z m945 -37 c0 -9 -5 -14 -12 -12 -18 6 -21 28 -4 28 9 0 16 -7 16 -16z m751 3 c-6 -8 -8 -17 -4 -20 3 -4 -159 -7 -361 -7 -261 0 -365 3 -360 11 3 6 17 8 30 5 13 -4 24 -3 24 1 0 5 148 7 330 5 223 -2 330 1 330 8 0 5 5 10 11 10 8 0 9 -4 0 -13z m87 -34 c21 -9 49 -29 63 -44 25 -26 57 -104 47 -114 -3 -3 -10 12 -16 33 -16 52 -75 109 -131 127 -30 9 -38 14 -23 14 13 1 40 -7 60 -16z m-842 -38 c9 -23 14 -71 14 -147 0 -116 -10 -176 -32 -190 -16 -10 -37 -10 -22 0 6 4 18 22 27 41 30 60 17 301 -17 323 -8 5 -7 8 2 8 7 0 20 -16 28 -35z m1075 -151 c0 -80 -24 -153 -68 -203 -18 -20 -32 -31 -33 -25 0 6 7 17 15 24 8 7 27 36 42 64 23 44 27 63 27 143 1 52 4 85 9 77 5 -8 8 -44 8 -80z m-64 -11 c-4 -3 -7 0 -7 7 0 7 3 10 7 7 3 -4 3 -10 0 -14z m-68 -76 c-18 -47 -71 -91 -130 -110 -45 -15 -100 -17 -438 -15 l-386 2 405 6 c397 5 406 5 447 28 45 24 87 77 99 127 6 22 9 25 12 12 2 -10 -2 -33 -9 -50z m-1959 -67 c0 -17 20 -46 57 -86 12 -13 18 -26 14 -29 -18 -10 -83 87 -95 140 -6 28 -5 29 9 11 8 -11 15 -27 15 -36z m1960 -111 c-34 -28 -100 -59 -125 -58 -12 0 -3 7 22 17 23 10 48 23 55 30 6 6 18 12 25 12 7 0 13 5 13 10 0 6 8 10 18 10 14 0 12 -4 -8 -21z m-1816 -32 c3 4 6 1 6 -5 0 -7 -2 -12 -5 -12 -10 0 -65 30 -65 36 0 2 13 -2 29 -10 16 -9 31 -12 35 -9z m1650 -27 c11 -11 -1571 -14 -1611 -4 -13 4 -23 9 -23 13 0 11 1623 2 1634 -9z m-4 -280 c25 -4 -326 -8 -783 -9 -795 0 -829 -1 -870 -20 -43 -19 -92 -60 -99 -82 -2 -7 -10 -10 -17 -8 -17 6 55 77 99 96 19 9 55 19 80 23 64 10 1535 10 1590 0z m113 -26 c96 -49 167 -143 185 -244 10 -62 5 -137 -10 -146 -7 -5 -8 20 -3 74 6 68 4 86 -13 126 -28 62 -89 134 -132 154 -19 9 -37 19 -40 22 -3 3 -16 11 -30 17 -19 9 -21 12 -7 12 10 1 32 -6 50 -15z m-1768 -64 c-3 -5 -10 -10 -16 -10 -5 0 -9 5 -9 10 0 6 7 10 16 10 8 0 12 -4 9 -10z m1685 -34 c83 -30 151 -102 149 -158 0 -20 -2 -19 -12 7 -21 54 -48 90 -85 115 l-37 25 -410 3 c-246 2 -414 7 -419 12 -16 16 771 12 814 -4z m-1820 -46 c-6 -12 -14 -19 -17 -17 -2 3 1 15 7 27 6 12 14 19 17 17 2 -3 -1 -15 -7 -27z m1016 -5 c27 -67 15 -321 -17 -341 -19 -11 -22 6 -5 25 20 22 35 174 21 208 -4 10 -7 37 -6 59 1 23 -2 45 -8 49 -11 6 -15 35 -5 35 3 0 12 -16 20 -35z m-1032 -158 c4 -110 -10 -153 -16 -49 -4 66 1 166 8 160 2 -3 6 -53 8 -111z m1976 -73 c-7 -19 -14 -33 -16 -31 -3 3 1 23 8 46 7 23 14 37 16 31 2 -5 -2 -26 -8 -46z m37 -51 c-4 -3 -7 0 -7 7 0 7 3 10 7 7 3 -4 3 -10 0 -14z m73 4 c0 -19 -60 -100 -96 -130 -17 -15 -53 -37 -80 -49 l-49 -23 -840 0 -840 0 -46 22 c-69 33 -146 130 -136 171 3 11 7 6 12 -15 10 -44 99 -135 150 -153 33 -12 174 -15 830 -18 829 -3 874 -1 919 40 11 10 30 18 43 18 17 0 21 4 16 17 -4 10 -2 14 5 9 15 -9 82 63 89 96 6 28 23 39 23 15z m-140 -9 c0 -18 -78 -64 -120 -72 -51 -9 -800 -12 -800 -3 0 4 171 7 381 7 242 0 396 4 424 11 23 6 58 24 76 40 40 33 39 33 39 17z m-828 -473 c11 -7 -273 -10 -865 -10 l-882 0 -37 -22 c-21 -12 -38 -19 -38 -15 0 16 76 45 135 52 93 12 1667 7 1687 -5z m77 -36 c18 -11 31 -22 28 -25 -6 -7 -63 22 -72 36 -10 16 7 12 44 -11z m-1925 -51 c-9 -18 -23 -37 -30 -41 -8 -4 -19 -28 -25 -53 -12 -48 -31 -71 -23 -28 8 45 34 98 61 127 34 35 37 34 17 -5z m1996 -20 c22 -24 27 -42 9 -36 -6 2 -9 6 -7 10 2 3 -6 15 -16 27 -11 12 -16 21 -13 21 3 0 15 -10 27 -22z m45 -113 c4 -27 3 -37 -3 -30 -6 6 -14 28 -17 50 -5 27 -4 37 3 30 5 -5 13 -28 17 -50z m-2109 -130 c1 -57 6 -101 14 -110 6 -8 9 -18 6 -23 -13 -22 97 -132 132 -132 10 0 24 -6 31 -13 9 -9 196 -12 864 -12 963 0 889 -6 981 80 18 17 32 39 32 50 0 11 5 19 12 18 7 -2 14 17 18 47 4 28 11 53 17 57 14 8 0 -62 -22 -112 -26 -58 -62 -97 -117 -125 l-49 -25 -854 -3 c-947 -3 -909 -5 -987 62 -66 57 -88 113 -92 241 -2 61 -1 106 4 102 4 -4 9 -50 10 -102z m138 -166 c-3 -5 -10 -7 -15 -3 -5 3 -7 10 -3 15 3 5 10 7 15 3 5 -3 7 -10 3 -15z"/>
 </g>
<g id="layer105" fill="#d9fdff" stroke="none">
 <path d="M348 3751 c-158 -51 -280 -173 -328 -329 -20 -63 -20 -96 -20 -1537 0 -1436 0 -1474 20 -1536 48 -157 172 -281 328 -329 63 -20 96 -20 1537 -20 1441 0 1474 0 1537 20 156 48 280 172 328 329 20 62 20 100 20 1536 0 1436 0 1474 -20 1536 -48 157 -172 281 -328 329 -63 20 -95 20 -1541 19 -1400 0 -1479 -1 -1533 -18z m2754 -622 c133 -28 236 -126 263 -248 12 -56 7 -142 -12 -195 -24 -67 -100 -148 -171 -183 l-57 -28 -840 0 -840 0 -45 23 c-58 31 -86 57 -118 112 -25 41 -27 56 -31 169 -2 79 1 139 9 165 28 94 107 167 201 185 69 14 1577 13 1641 0z m-21 -929 c153 -22 260 -122 287 -270 27 -147 -50 -294 -188 -359 l-55 -26 -824 -3 c-910 -3 -883 -4 -957 60 -75 66 -94 122 -95 274 0 131 16 184 76 245 49 51 85 70 150 79 79 12 1524 11 1606 0z m-664 -949 c59 -26 117 -84 141 -140 23 -55 28 -234 8 -304 -21 -73 -69 -133 -131 -166 l-50 -26 -854 -3 c-972 -3 -917 -7 -1002 78 -62 62 -79 118 -79 256 0 125 21 192 77 246 51 49 97 70 168 79 33 4 422 6 865 5 l805 -1 52 -24z"/>
 <path d="M2295 2959 c20 -56 20 -259 0 -314 -8 -22 -15 -41 -15 -43 0 -2 183 -2 408 0 401 3 408 3 449 26 24 12 55 41 70 64 24 36 28 52 28 113 0 81 -21 123 -83 166 l-36 24 -417 3 -418 3 14 -42z"/>
 <path d="M2280 2067 c0 -3 7 -21 15 -40 20 -49 20 -256 0 -312 -8 -22 -15 -41 -15 -43 0 -2 183 -2 408 0 467 3 458 2 520 94 31 45 34 54 30 114 -4 73 -24 111 -85 158 l-36 27 -419 3 c-230 1 -418 1 -418 -1z"/>
 </g>
<g id="layer106" fill="#feffff" stroke="none">
 <path d="M411 3759 c-194 -32 -368 -211 -400 -409 -15 -90 -15 -2840 0 -2930 32 -203 206 -377 409 -409 90 -15 2840 -15 2930 0 203 32 377 206 409 409 15 90 15 2840 0 2930 -32 203 -206 377 -409 409 -82 14 -2860 13 -2939 0z m2674 -619 c11 -1 46 -9 79 -18 49 -13 69 -25 121 -77 57 -57 64 -69 84 -142 26 -98 26 -114 1 -196 -30 -96 -95 -179 -162 -205 -106 -42 -110 -42 -943 -42 -785 0 -811 1 -854 20 -23 11 -48 17 -54 13 -5 -3 -7 -1 -4 4 4 6 -8 21 -26 33 -19 13 -42 45 -58 79 -25 53 -26 64 -24 198 2 179 14 211 102 283 30 25 101 53 117 47 9 -3 18 -2 21 4 6 8 1532 7 1600 -1z m-265 -931 c234 -1 314 -5 345 -16 46 -16 134 -73 135 -87 0 -6 8 -19 18 -30 28 -32 65 -125 69 -177 4 -55 -16 -137 -48 -197 -24 -44 -132 -155 -142 -146 -3 3 -28 -1 -54 -10 -44 -15 -133 -16 -864 -13 -448 3 -825 5 -838 6 -37 2 -105 46 -141 91 -44 55 -59 112 -54 200 2 45 0 78 -7 86 -26 32 50 224 90 224 6 0 11 5 11 11 0 18 109 62 140 55 17 -3 32 -1 36 6 5 8 142 9 503 4 273 -3 633 -7 801 -7z m-475 -930 c36 -3 72 -11 88 -21 14 -10 33 -18 42 -18 8 0 15 -4 15 -8 0 -5 13 -23 30 -42 52 -58 72 -129 67 -240 -3 -52 -7 -115 -11 -140 -7 -50 -66 -146 -97 -155 -10 -4 -19 -10 -19 -15 0 -28 -78 -31 -877 -30 -569 0 -813 -2 -818 -10 -13 -21 -126 0 -180 33 -51 30 -105 80 -105 95 0 5 -9 20 -21 33 -19 22 -20 34 -17 179 3 150 4 157 32 203 31 51 107 117 137 117 10 0 21 5 25 11 4 7 22 9 49 4 27 -4 46 -2 50 5 5 7 233 9 778 6 425 -2 799 -6 832 -7z"/>
 <path d="M2308 2989 c-6 -4 -7 -16 -2 -30 5 -13 8 -98 9 -189 l0 -165 28 -3 c16 -2 34 2 42 8 9 7 15 8 20 0 8 -13 608 -14 633 -1 9 6 34 13 55 16 53 9 112 64 132 124 13 40 14 57 4 95 -11 46 -30 70 -90 116 -37 28 24 25 -617 32 -112 2 -209 0 -214 -3z"/>
 <path d="M2313 2054 c-8 -4 -8 -15 -1 -40 5 -19 6 -48 3 -64 -4 -16 -2 -31 5 -35 8 -5 8 -11 -1 -21 -8 -10 -9 -36 -5 -84 5 -45 3 -77 -4 -90 -16 -30 4 -54 31 -37 15 9 23 9 39 -1 25 -15 645 -18 655 -2 3 6 20 10 36 10 34 0 61 12 90 41 10 10 23 19 28 19 14 0 45 92 43 130 -2 64 -51 133 -119 169 -15 8 -134 11 -405 10 -211 0 -388 -3 -395 -5z m784 -51 c-4 -3 -10 -3 -14 0 -3 4 0 7 7 7 7 0 10 -3 7 -7z m0 -270 c-4 -3 -10 -3 -14 0 -3 4 0 7 7 7 7 0 10 -3 7 -7z"/>
 </g>

</svg>